<?xml version="1.0" encoding="utf-8"?>
<svg baseProfile="tiny" fill="#9790ee" height="100vh" stroke="white" stroke-linecap="round" stroke-linejoin="round" stroke-width="1" version="1.2" viewBox="821.517 192.563 618.615 569.616" width="100vw" xmlns="http://www.w3.org/2000/svg">
  <defs/>

  <path d="M1296.2 336.7l1.3 5.1-2.8 0 0 4.2 1.1 0.9-2.4 1.3 0.2 2.6-1.3 2.6 0 2.6-1 1.4-16.9-3.2-2.7-6.6-0.3-1.4 0.9-0.4 0.4 1.8 4.2-1 4.6 0.2 3.4 0.2 3.3-4.4 3.7-4.1 3-4 1.3 2.2z" id="AE" name="Emirados Árabes Unidos"/>
  <path d="M1154.9 530.4l-0.6 0.1 0-0.3-2-6.1-0.01-0.06-0.09-1.04-1.4-2.9 3.5 0.5 1.7-3.7 3.1 0.4 0.3 2.5 1.2 1.5 0 2.1-1.4 1.3-2.3 3.4-2 2.3z" id="BI" name="Burundi"/>
  <path d="M1006.7 427l-0.2 2.1 1.3 3.8-1.1 2.6 0.6 1.7-2.8 4-1.7 2-1.1 4 0.2 4.1-0.3 10.3-4.7 0.8-1.4-4.4 0.3-14.8-1.2-1.3-0.2-3.2-2-2.2-1.7-1.9 0.7-3.4 2-0.7 1.1-2.8 2.8-0.6 1.2-1.9 1.9-1.9 2 0 4.3 3.7z" id="BJ" name="Benim"/>
  <path d="M988.5 406l-0.5 3.1 0.8 2.9 3.1 4.2 0.2 3.1 6.5 1.5-0.1 4.4-1.2 1.9-2.8 0.6-1.1 2.8-2 0.7-4.9-0.1-2.6-0.5-1.8 1-2.5-0.5-9.8 0.3-0.2 3.7 0.8 4.8-3.9-1.6-2.6 0.2-2 1.6-2.5-1.3-1-2.2-2.5-1.4-0.4-3.7 1.6-2.7-0.2-2.2 4.5-5.3 0.9-4.4 1.5-1.6 2.7 0.9 2.4-1.3 0.8-1.7 4.3-2.8 1.1-2 5.3-2.7 3.1-0.9 1.4 1.2 3.6 0z" id="BF" name="Burquina Fasso"/>
  <path d="M1127.6 615.7l1.9 5.1 1.1 1.2 1.6 3.7 6.1 7 2.3 0.7-0.1 2.3 1.5 4.1 4.3 1 3.4 2.9-8.1 4.7-5.2 4.8-2 4.3-1.8 2.4-3 0.5-1.2 3.1-0.6 2-3.6 1.4-4.5-0.3-2.5-1.8-2.3-0.7-2.8 1.4-1.5 3.1-2.7 1.9-2.8 2.9-4 0.7-1.1-2.3 0.6-3.9-3-6.1-1.4-1 0.6-18.7 5.5-0.2 0.8-22.9 4.2-0.2 8.7-2.3 2 2.7 3.7-2.5 1.7 0 3.2-1.5 1 0.5z" id="BW" name="Botsuana"/>
  <path d="M1121.3 446.5l3.9 2.5 3.1 2.6 0.1 2.1 3.9 3.3 2.4 2.8 1.4 3.8 4.3 2.6 0.9 2-1.8 0.7-3.7-0.1-4.2-0.7-2.1 0.5-0.9 1.6-1.8 0.2-2.2-1.4-6.3 3.2-2.6-0.6-0.8 0.5-1.6 3.9-4.3-1.3-4.1-0.6-3.6-2.4-4.7-2.2-3 2.1-2.2 3.2-0.5 4.5-3.6-0.3-3.9-1.1-3.3 3.4-3 6-0.6-1.9-0.3-2.9-2.6-2.1-2.1-3.3-0.5-2.3-2.7-3.4 0.5-1.9-0.6-2.7 0.4-5 1.4-1.1 2.8-6.5 4.6-0.5 1-1.7 1 0.2 1.4 1.4 7.1-2.4 2.4-2.5 2.9-2.3-0.6-2.2 1.6-0.6 5.5 0.4 5.2-3 4-7 2.8-2.6 3.6-1.1 0.7 2.7 3.3 4 0 2.7-0.8 2.6 0.4 2 1.9 1.9 0.5 0.3z" id="CF" name="República Centro-Africana"/>
  <path d="M955.9 435.2l2.5 1.4 1 2.2 2.5 1.3 2-1.6 2.6-0.2 3.9 1.6 1.5 9.2-2.4 5.3-1.5 7.3 2.4 5.5-0.2 2.6-2.6 0-3.9-1.2-3.7 0-6.7 1.2-3.9 1.8-5.6 2.4-1.1-0.2 0.4-5.3 0.6-0.8-0.2-2.5-2.4-2.7-1.8-0.4-1.6-1.8 1.2-2.9-0.5-3.1 0.2-1.8 0.9 0 0.4-2.8-0.4-1.3 0.5-0.9 2.1-0.7-1.4-5.2-1.3-2.6 0.5-2.2 1.1-0.5 0.8-0.6 1.5 1 4.4 0 1-1.8 1 0.1 1.6-0.7 0.9 2.7 1.3-0.8 2.4-1z" id="CI" name="Costa do Marfim"/>
  <path d="M1072.8 454.2l-2.8 6.5-1.4 1.1-0.4 5 0.6 2.7-0.5 1.9 2.7 3.4 0.5 2.3 2.1 3.3 2.6 2.1 0.3 2.9 0.6 1.9-0.4 3.4-4.5-1.5-4.6-1.7-7.1-0.2-0.7-0.4-3.4 0.8-3.4-0.8-2.7 0.4-9.3-0.1 0.9-5.1-2.3-4.3-2.6-1-1.1-2.9-1.5-0.9 0.1-1.8 1.4-4.6 2.7-6.2 1.6 0 3.4-3.8 2.1-0.1 3.2 2.7 3.9-2.2 0.5-2.7 1.3-2.6 0.8-3.2 3-2.6 1.1-4.5 1.2-1.5 0.8-3.3 1.4-4.1 4.7-5 0.3-2.1 0.6-1.2-2.3-2.5 0.2-2.1 1.5-0.3 2.3 4.1 0.5 4.2-0.2 4.3 3.2 5.8-3.2 0-1.6 0.4-2.6-0.6-1.2 3 3.4 3.8 2.5 1.1 0.8 2.6 1.8 4.4-0.8 1.8z" id="CM" name="Camarões"/>
  <path d="M1141.3 468.2l3.5 5.3 2.6 0.8 1.5-1.1 2.6 0.4 3.1-1.3 1.4 2.7 5.1 4.3-0.3 7.5 2.3 0.9-1.9 2.2-2.1 1.8-2.2 3.3-1.2 3-0.3 5.1-1.3 2.5-0.1 4.8-1.6 1.8-0.2 3.8-0.8 0.5-0.6 3.6 1.4 2.9 0.1 1-1.2 10.3 1.5 3.6-1 2.7 1.8 4.6 3.4 3.5 0.7 3.5 1.6 1.7-0.3 1.1-0.9-0.3-7.7 1.1-1.5 0.8-1.7 4.1 1.2 2.8-1.1 7.6-0.9 6.4 1.5 1.2 3.9 2.5 1.6-1.2 0.2 6.9-4.3 0-2.2-3.5-2-2.8-4.3-0.9-1.2-3.3-3.5 2-4.4-0.9-1.9-2.9-3.5-0.6-2.7 0.1-0.3-2-1.9-0.1-2.6-0.4-3.5 1-2.4-0.2-1.4 0.6 0.4-7.6-1.8-2.4-0.4-4 0.9-3.9-1.1-2.4-0.1-4.1-6.8 0.1 0.5-2.3-2.9 0-0.3 1.1-3.5 0.3-1.5 3.7-0.9 1.6-3.1-0.9-1.8 0.9-3.8 0.5-2.1-3.3-1.3-2.1-1.6-3.9-1.3-4.7-16.7-0.1-2 0.7-1.7-0.1-2.3 0.9-0.8-2 1.4-0.7 0.2-2.8 1-1.6 2-1.4 1.5 0.7 2-2.5 3.1 0.1 0.3 1.8 2.1 1.1 3.4-4 3.3-3.1 1.4-2.1-0.1-5.3 2.5-6.2 2.6-3.3 3.7-3.1 0.7-2 0.1-2.4 0.9-2.2-0.3-3.7 0.7-5.7 1.1-4 1.7-3.4 0.3-3.9 0.5-4.5 2.2-3.2 3-2.1 4.7 2.2 3.6 2.4 4.1 0.6 4.3 1.3 1.6-3.9 0.8-0.5 2.6 0.6 6.3-3.2 2.2 1.4 1.8-0.2 0.9-1.6 2.1-0.5 4.2 0.7 3.7 0.1 1.8-0.7z" id="CD" name="República Democrática do Congo"/>
  <path d="M1090.9 479.3l-0.3 3.9-1.7 3.4-1.1 4-0.7 5.7 0.3 3.7-0.9 2.2-0.1 2.4-0.7 2-3.7 3.1-2.6 3.3-2.5 6.2 0.1 5.3-1.4 2.1-3.3 3.1-3.4 4-2.1-1.1-0.3-1.8-3.1-0.1-2 2.5-1.5-0.7-2.1-2.2-1.7 1.1-2.3 2.8-4.6-6.8 4.3-3.6-2.1-4.2 2-1.6 3.8-0.8 0.4-2.9 3.1 3.1 5 0.3 1.7-3 0.7-4.3-0.6-5-2.7-3.8 2.5-7.5-1.4-1.2-4.2 0.5-1.6-3.3 0.4-2.8 7.1 0.2 4.6 1.7 4.5 1.5 0.4-3.4 3-6 3.3-3.4 3.9 1.1 3.6 0.3z" id="CG" name="Congo"/>
  <path d="M1229.5 428.2l-1.9 3.5-1.3-1.2-1.3 0.5-3.2-0.1-0.2-2-0.5-1.8 1.8-3 1.9-2.8 2.4 0.6 1.7-1.6 1.4 2-0.1 2.6-3.1 1.6 2.4 1.7z" id="DJ" name="Djibouti"/>
  <path d="M1031 264.6l-1 3.3 1 6.1-1.1 5.3-3.2 3.6 0.6 4.8 4.5 3.9 0.1 1.5 3.4 2.6 2.6 11.5 1.9 5.7 0.4 3-0.8 5.2 0.4 3-0.6 3.5 0.6 4-2.2 2.7 3.4 4.7 0.2 2.7 2.1 3.6 2.5-1.2 4.5 3 2.5 4-18.8 12.3-16 12.6-7.8 2.8-6.2 0.7-0.1-4.1-2.6-1.1-3.5-1.8-1.3-3-18.7-14-18.6-14-20.5-15.6 0.1-1.2 0.1-0.4 0.1-7.6 8.9-4.8 5.4-1 4.5-1.7 2.1-3.2 6.4-2.5 0.3-4.8 3.1-0.6 2.5-2.3 7.1-1.1 1-2.5-1.4-1.4-1.9-6.8-0.3-3.9-1.9-4.1 5.1-3.5 5.8-1.1 3.3-2.6 5.1-2 9-1.1 8.8-0.5 2.7 0.9 4.9-2.5 5.7-0.1 2.2 1.5 3.6-0.4z" id="DZ" name="Argélia"/>
  <path d="M1172.1 301.4l3.9 9.4 0.7 1.6-1.3 2.6-0.7 4.8-1.2 3.4-1.2 1.1-2-2.1-2.7-2.8-4.7-9.2-0.5 0.6 2.8 6.7 3.9 6.5 4.9 10 2.3 3.5 2 3.6 5.4 7.1-1 1.1 0.4 4.2 6.8 5.8 1.1 1.3-22.1 0-21.5 0-22.3 0-1-23.7-1.3-22.8-2-5.2 1.1-3.9-1-2.8 1.7-3.1 7.2-0.1 5.4 1.7 5.5 1.9 2.6 1 4-2 2.1-1.8 4.7-0.6 3.9 0.8 1.8 3.2 1.1-2.1 4.4 1.5 4.3 0.4 2.5-1.6z" id="EG" name="Egito"/>
  <path d="M1228.9 420.3l-1.7 1.6-2.4-0.6-2-2.1-2.5-3.7-2.6-2.1-1.5-2.2-5-2.6-3.9-0.1-1.4-1.3-3.2 1.5-3.6-2.9-1.5 4.8-6.6-1.4-0.7-2.5 2-9.5 0.3-4.2 1.7-2 4-1.1 2.7-3.6 3.6 7.4 1.9 5.9 3.2 3.1 8 6.1 3.3 3.6 3.2 3.8 1.8 2.2 2.9 1.9z" id="ER" name="Eritreia"/>
  <path d="M1207.3 408.5l3.9 0.1 5 2.6 1.5 2.2 2.6 2.1 2.5 3.7 2 2.1-1.9 2.8-1.8 3 0.5 1.8 0.2 2 3.2 0.1 1.3-0.5 1.3 1.2-1.2 2.2 2.2 3.6 2.2 3.1 2.2 2.3 18.7 7.6 4.8-0.1-15.6 19.3-7.3 0.3-5 4.5-3.6 0.1-1.5 2.1-3.9 0-2.3-2.2-5.2 2.7-1.6 2.7-3.8-0.6-1.3-0.7-1.3 0.2-1.8-0.1-7.2-5.4-4 0-1.9-2.1-0.1-3.6-2.9-1.1-3.5-7-2.6-1.5-1-2.6-3-3.1-3.5-0.5 1.9-3.6 3-0.2 0.8-1.9-0.2-5 0-0.8 1.5-6.7 2.6-1.8 0.5-2.6 2.3-5 3.3-3.1 2-6.4 0.7-5.5 6.6 1.4 1.5-4.8 3.6 2.9 3.2-1.5 1.4 1.3z" id="ET" name="Etiópia"/>
  <path d="M1060.5 487.3l-0.4 2.8 1.6 3.3 4.2-0.5 1.4 1.2-2.5 7.5 2.7 3.8 0.6 5-0.7 4.3-1.7 3-5-0.3-3.1-3.1-0.4 2.9-3.8 0.8-2 1.6 2.1 4.2-4.3 3.6-5.8-6.5-3.7-5.3-3.5-6.6 0.2-2.2 1.3-2 1.3-4.7 1.2-4.8 1.9-0.3 8.2 0 0-7.7 2.7-0.4 3.4 0.8 3.4-0.8 0.7 0.4z" id="GA" name="Gabão"/>
  <path d="M986.5 431.1l-0.4 2 2.3 3.3 0 4.7 0.6 5 1.4 2.4-1.3 5.7 0.5 3.2 1.5 4.1 1.3 2.3-8.9 3.7-3.2 2.2-5.1 1.9-5-1.8 0.2-2.6-2.4-5.5 1.5-7.3 2.4-5.3-1.5-9.2-0.8-4.8 0.2-3.7 9.8-0.3 2.5 0.5 1.8-1 2.6 0.5z" id="GH" name="Gana"/>
  <path d="M921.5 421.9l0.3 2.4 0.9 0 1.5-0.9 0.9 0.2 1.6 1.7 2.4 0.5 1.5-1.4 1.9-0.9 1.3-0.9 1.1 0.2 1.3 1.4 0.6 1.8 2.3 2.7-1.1 1.6-0.3 2.1 1.2-0.6 0.7 0.7-0.3 1.9 1.7 1.9-1.1 0.5-0.5 2.2 1.3 2.6 1.4 5.2-2.1 0.7-0.5 0.9 0.4 1.3-0.4 2.8-0.9 0-1.6-0.2-1.1 2.6-1.6 0-1.1-1.4 0.4-2.6-2.4-3.9-1.4 0.7-1.3 0.2-1.5 0.3 0.1-2.3-0.9-1.7 0.2-1.9-1.2-2.7-1.6-2.3-4.5 0-1.3 1.2-1.6 0.2-1 1.4-0.6 1.7-3.1 2.9-2.4-3.8-2.2-2.5-1.4-0.9-1.4-1.3-0.6-2.8-0.8-1.4-1.7-1.1 2.6-3.1 1.7 0.1 1.5-1 1.2-0.1 0.9-0.8-0.4-2.1 0.6-0.7 0.1-2.2 2.7 0.1 4.1 1.5 1.2-0.1 0.4-0.7 3.1 0.5 0.8-0.4z" id="GN" name="Guiné"/>
  <path d="M891.6 417.4l0.8-2.9 6.1-0.1 1.3-1.6 1.8-0.1 2.2 1.6 1.7 0 1.9-1 1.1 1.8-2.5 1.5-2.4-0.2-2.4-1.3-2.1 1.5-1 0-1.4 0.9-5.1-0.1z" id="GM" name="Gâmbia"/>
  <path d="M909.2 421l-0.1 2.2-0.6 0.7 0.4 2.1-0.9 0.8-1.2 0.1-1.5 1-1.7-0.1-2.6 3.1-2.9-2.6-2.4-0.5-1.3-1.8 0.1-1-1.7-1.3-0.4-1.4 3-1 1.9 0.2 1.5-0.8 10.4 0.3z" id="GW" name="Guiné-Bissau"/>
  <path d="M1050.3 487.3l0 7.7-8.2 0-1.9 0.3-1.1-0.9 1.9-7.2 9.3 0.1z" id="GQ" name="Guiné Equatorial"/>
  <path d="M1229 253.2l1.8-0.2 5.3-4.7 1.9-0.5 1.9 1.9-1.2 3.1 3.9 3.4 1.3-0.4 2.5 4.8 5.3 1.3 4.3 3.2 7.7 1.1 8-1.7 0.2-1.5 4.4-1.2 3-3.7 3.6 0.2 2-1.2 3.9 0.6 6.6 3.3 4.3 0.7 7.3 5.6 4 0.3 1.7 5.3-0.6 8-0.5 4.7 2.5 1-1.6 3.5 2.7 5.1 1.2 4.1 4.3 1.1 1.1 4.1-3.9 5.8 3.2 3.4 2.8 3.9 5.7 2.8 1 5.6 2.7 1.1 0.9 2.9-7.5 3.4-1.1 7.4-10.6-1.9-6.2-1.5-6.3-0.8-3.3-7.9-2.8-1.1-4.1 1.1-5.1 3.1-7-2.1-6.1-5-5.5-1.8-4.4-6.1-5.2-8.5-2.8 1-3.7-2.1-1.7 2.5-3.5-3.4-0.5-3.4-1.7 0 0.2-4.7-3.5-4.8-7.1-3.6-4.6-6.1 0.5-5 2.3-2.2-0.9-3.7-3.8-2-4.7-7.6-3.8-5.1 0.7-2-2.9-7.3 3.3-1.9 1.2 2.5 3.2 2.9 3.8 0.9z" id="IR" name="Irã"/>
  <path d="M1223.5 263.2l4.7 7.6 3.8 2 0.9 3.7-2.3 2.2-0.5 5 4.6 6.1 7.1 3.6 3.5 4.8-0.2 4.7 1.7 0 0.5 3.4 3.5 3.4-3.3-0.3-3.7-0.6-3.3 6.2-10.2-0.5-16.8-12.9-8.6-4.5-6.8-1.8-3.1-7.8 11-6.7 1-7.7-1.2-4.7 2.7-1.6 2.1-4 2.1-1 6.3 0.9 2.1 1.6 2.4-1.1z" id="IQ" name="Iraque"/>
  <path d="M1179.1 288.2l0.4 2.6-0.6 1 0.1 0-0.7 2-2.1-0.8-0.7 4.2 1.5 0.7-1.3 0.9-0.1 1.7 2.5-0.8 0.4 2.5-1.8 10.2-0.7-1.6-3.9-9.4 1.4-2.1-0.4-0.4 1.1-3 0.6-4.8 0.6-1.7 0.1 0 1.8 0 0.4-1.1 1.4-0.1z" id="IL" name="Israel"/>
  <path d="M1198.1 295.3l-0.9 1-10.4 3.2 6 6.5-1.6 1-0.7 2.2-4.1 0.9-1.1 2.3-2.1 2-6.2-1.1-0.3-0.9 1.8-10.2-0.4-2.5 0.6-1.9-0.4-4 0.7-2 6.3 2.6 9.7-6.9 3.1 7.8z" id="JO" name="Jordânia"/>
  <path d="M1223.5 476.7l-4.9 7.2 0.2 23.4 3.3 5.3-4 2.6-1.4 2.7-2.2 0.4-0.8 4.6-1.9 2.6-1.1 4.2-2.3 2.1-8.1-6.4-0.3-3.7-20.5-13.1 0.4-4.7-1.4-2.5 0-0.3 1.6-2.6 2.8-4.2 2.1-4.7-2.6-7.4-0.7-3.2-2.7-4.5 3.4-3.8 3.8-4.2 2.9 1.1 0.1 3.6 1.9 2.1 4 0 7.2 5.4 1.8 0.1 1.3-0.2 1.3 0.7 3.8 0.6 1.6-2.7 5.2-2.7 2.3 2.2 3.9 0z" id="KE" name="Quênia"/>
  <path d="M1247.5 309.4l1.5 2.8-0.3 1.5 2.4 4.8-3.9 0.2-1.7-3.1-5-0.6 3.3-6.2 3.7 0.6z" id="KW" name="Kuwait"/>
  <path d="M1179.1 288.2l-1.4 0.1-0.4 1.1-1.8 0 1.3-5.3 2.2-4.5 0-0.2 2.5 0.3 1.2 2.5-2.7 2.5-0.9 3.5z" id="LB" name="Líbano"/>
  <path d="M938.6 452.5l-0.2 1.8 0.5 3.1-1.2 2.9 1.6 1.8 1.8 0.4 2.4 2.7 0.2 2.5-0.6 0.8-0.4 5.3-1.5 0.1-5.8-3.1-5.2-4.9-4.8-3.5-3.8-4.1 1.4-2.1 0.3-1.9 2.6-3.4 2.6-3 1.3-0.2 1.4-0.7 2.4 3.9-0.4 2.6 1.1 1.4 1.6 0 1.1-2.6 1.6 0.2z" id="LR" name="Libéria"/>
  <path d="M1122.6 299.1l-1.7 3.1 1 2.8-1.1 3.9 2 5.2 1.3 22.8 1 23.7 0.5 12.8-6.4 0 0 2.7-22.6-12.3-22.5-12.3-5.5 3.5-3.8 2.4-3.2-3.5-8.8-2.8-2.5-4-4.5-3-2.5 1.2-2.1-3.6-0.2-2.7-3.4-4.7 2.2-2.7-0.6-4 0.6-3.5-0.4-3 0.8-5.2-0.4-3-1.9-5.7 2.6-1.4 0.4-2.8-0.6-2.6 3.6-2.5 1.6-2.1 2.6-1.8 0.1-4.9 6.4 2.2 2.3-0.6 4.5 1.1 7.3 2.9 2.8 5.7 4.9 1.2 7.8 2.7 6 3.2 2.5-1.7 2.5-2.9-1.6-4.9 1.5-3.2 3.7-3 3.7-0.8 7.4 1.3 2 2.8 2 0.1 1.8 1.1 5.4 0.7 1.5 2.1z" id="LY" name="Líbia"/>
  <path d="M1139.1 697.9l-2 0.7-3.7-5 3.2-4 3.1-2.5 2.7-1.4 2.2 2 1.7 2-1.9 3.1-1.1 2.1-3.1 1-1.1 2z" id="LS" name="Lesoto"/>
  <path d="M974.8 276l1.9 4.1 0.3 3.9 1.9 6.8 1.4 1.4-1 2.5-7.1 1.1-2.5 2.3-3.1 0.6-0.3 4.8-6.4 2.5-2.1 3.2-4.5 1.7-5.4 1-8.9 4.8-0.1 7.6-0.9 0 0.1 3.4-3.4 0.2-1.8 1.5-2.5 0-2-0.9-4.6 0.7-1.9 5-1.8 0.5-2.7 8.1-7.9 6.9-2 8.9-2.4 2.9-0.7 2.3-12.5 0.5-0.1 0 0.3-3 2.2-1.7 1.9-3.4-0.3-2.2 2-4.5 3.2-4.1 1.9-1 1.6-3.7 0.2-3.5 2.1-3.9 3.8-2.4 3.6-6.5 0.1-0.1 2.9-2.5 5.1-0.7 4.4-4.4 2.8-1.7 4.7-5.4-1.2-7.9 2.2-5.6 0.9-3.4 3.6-4.3 5.4-2.9 4.1-2.7 3.7-6.6 1.8-4 3.9 0.1 3.1 2.7 5.1-0.4 5.5 1.4 2.4 0z" id="MA" name="Marrocos"/>
  <path d="M1267.9 588.9l0.4 7.7 1.3 3-0.7 3.1-1.2 1.8-1.6-3.7-1.2 1.9 0.8 4.7-0.7 2.8-1.7 1.4-0.7 5.5-2.7 7.5-3.4 8.8-4.3 12.2-2.9 8.9-3.1 7.5-4.6 1.5-5.1 2.7-3-1.6-4.2-2.3-1.2-3.4 0-5.7-1.5-5.1-0.2-4.7 1.3-4.6 2.6-1.1 0.2-2.1 2.9-4.9 0.8-4.1-1.1-3-0.8-4.1-0.1-5.9 2.2-3.6 1-4.1 2.8-0.2 3.2-1.3 2.2-1.2 2.4-0.1 3.4-3.6 4.9-4 1.8-3.2-0.6-2.8 2.4 0.8 3.3-4.4 0.3-3.9 2-2.9 1.8 2.8 1.4 2.7 1.2 4.3z" id="MG" name="Madagascar"/>
  <path d="M1010.2 378.8l0.1 14.8-3.1 4.3-0.4 4-5 1-7.7 0.5-2 2.3-3.6 0.3-3.6 0-1.4-1.2-3.1 0.9-5.3 2.7-1.1 2-4.3 2.8-0.8 1.7-2.4 1.3-2.7-0.9-1.5 1.6-0.9 4.4-4.5 5.3 0.2 2.2-1.6 2.7 0.4 3.7-2.4 1-1.3 0.8-0.9-2.7-1.6 0.7-1-0.1-1 1.8-4.4 0-1.5-1-0.8 0.6-1.7-1.9 0.3-1.9-0.7-0.7-1.2 0.6 0.3-2.1 1.1-1.6-2.3-2.7-0.6-1.8-1.3-1.4-1.1-0.2-1.3 0.9-1.9 0.9-1.5 1.4-2.4-0.5-1.6-1.7-0.9-0.2-1.5 0.9-0.9 0-0.3-2.4 0.3-2-0.5-2.4-2-1.8-1.1-3.7-0.2-4 1.9-1.2 1-3.8 1.8-0.1 3.9 1.8 3.2-1.3 2.1 0.4 0.9-1.4 22.5-0.1 1.3-4.5-1-0.8-2.5-27.7-2.4-27.7 8.5-0.1 18.6 14 18.7 14 1.3 3 3.5 1.8 2.6 1.1 0.1 4.1 6.2-0.7z" id="ML" name="Mali"/>
  <path d="M1166.7 673.5l-4.1 0-0.3-2.9-0.6-2.9-0.4-2.3 1.4-7.1-1.1-4.6-2.2-9 6.2-7.3 1.7-4.6 0.8-0.6 0.9-3.8-0.8-1.9 0.4-4.8 1.3-4.4 0.4-8.2-2.8-2-2.7-0.5-1.1-1.6-2.6-1.3-4.7 0.1-0.2-2.4-0.4-4.6 17.2-5.3 3.2 3.1 1.5-0.6 2.2 1.6 0.2 2.6-1.3 3 0.2 4.5 3.5 4 1.9-4.5 2.5-1.3-0.1-8.3-2.2-4.6-1.9-2.1-0.4 0-0.6-7.3 1.5-6.1 2.2-0.2 6.7 1.8 1.5-0.8 3.9-0.2 2.1-1.9 3.4 0.1 6.2-2.5 4.6-3.7 0.9 2.8-0.5 6.4 0.5 5.7-0.2 10 0.8 3.1-1.9 4.6-2.4 4.5-3.7 4-5.3 2.4-6.5 3.1-6.6 6.9-2.2 1.2-4.2 4.6-2.3 1.4-0.8 4.6 2.4 4.9 0.9 3.7 0 2 1-0.4-0.5 6.3-1.1 3 1.2 1.1-1 2.7-2.4 2.3-4.7 2.1-6.9 3.5-2.5 2.4 0.3 2.7 1.3 0.4-0.7 3.4z" id="MZ" name="Moçambique"/>
  <path d="M959.2 341.5l-8.5 0.1 2.4 27.7 2.5 27.7 1 0.8-1.3 4.5-22.5 0.1-0.9 1.4-2.1-0.4-3.2 1.3-3.9-1.8-1.8 0.1-1 3.8-1.9 1.2-3.6-4.4-3.4-4.8-3.6-1.7-2.7-1.8-3.1 0-2.8 1.4-2.7-0.5-2 2-0.4-3.4 1.6-3.2 0.8-6-0.4-6.4-0.6-3.2 0.6-3.2-1.4-3-2.8-2.8 1.3-2.1 21.7 0-0.9-9.3 1.5-3.3 5.2-0.5 0.2-16.5 18 0.4 0.2-9.8 20.5 15.6z" id="MR" name="Mauritânia"/>
  <path d="M1182.3 588.9l0.4 0 1.9 2.1 2.2 4.6 0.1 8.3-2.5 1.3-1.9 4.5-3.5-4-0.2-4.5 1.3-3-0.2-2.6-2.2-1.6-1.5 0.6-3.2-3.1-2.9-1.6 2-6 1.8-2.2-0.9-5.4 1.3-5.2 1-1.7-1.3-5.4-2.6-2.9 5.5 1.2 1 1.7-0.1 0.8 1.8 4.1 0.2 7.7-1.8 3.6 1.6 4.7-0.2 2.8 1.2 1.9-0.1 2.4 0.9 1.4 1-1.6 1.9 2.5 0.2-0.8-1-3.4-1.1-0.3-0.1-0.9z" id="MW" name="Malawi"/>
  <path d="M1116.2 614.3l4.6-1.4 3.6 0.3 2.2 1.5 0 0.5-3.2 1.5-1.7 0-3.7 2.5-2-2.7-8.7 2.3-4.2 0.2-0.8 22.9-5.5 0.2-0.6 18.7-1.1 23.7-5 3.3-2.9 0.5-3.4-1.2-2.5-0.5-0.8-2.7-2-1.8-2.8 3.2-3.9-4.9-2-4.6-1-6.3-1.2-4.6-1.6-9.9 0.1-7.7-0.6-3.5-2.1-2.7-2.8-5.3-2.8-7.7-1.1-4-4.4-6.3-0.3-4.9 2.7-1.2 3.4-1.1 3.6 0.2 3.3 2.9 0.8-0.5 22.7-0.2 3.8 3 13.5 0.9 10.4-2.6z" id="NA" name="Namíbia"/>
  <path d="M1068.6 355l1.6 10 2.2 1.7 0.1 2 2.4 2.2-1.2 2.8-1.8 13-0.2 8.4-7 6-2.3 8.5 2.4 2.4 0 4.1 3.7 0.1-0.6 3.1-1.5 0.3-0.2 2.1-1 0.1-3.9-7-1.4-0.3-4.3 3.6-4.4-1.9-3-0.3-1.6 0.9-3.3-0.2-3.3 2.7-2.9 0.2-6.8-3.3-2.7 1.5-2.9-0.1-2.1-2.4-5.6-2.4-6.1 0.8-1.4 1.3-0.8 3.7-1.6 2.6-0.4 5.8-4.3-3.7-2 0-1.9 1.9 0.1-4.4-6.5-1.5-0.2-3.1-3.1-4.2-0.8-2.9 0.5-3.1 3.6-0.3 2-2.3 7.7-0.5 5-1 0.4-4 3.1-4.3-0.1-14.8 7.8-2.8 16-12.6 18.8-12.3 8.8 2.8 3.2 3.5 3.8-2.4z" id="NE" name="Níger"/>
  <path d="M1066.2 421.7l2.3 2.5-0.6 1.2-0.3 2.1-4.7 5-1.4 4.1-0.8 3.3-1.2 1.5-1.1 4.5-3 2.6-0.8 3.2-1.3 2.6-0.5 2.7-3.9 2.2-3.2-2.7-2.1 0.1-3.4 3.8-1.6 0-2.7 6.2-1.4 4.6-5.9 2.3-2.1-0.3-2.2 1.4-4.5-0.1-3.1-4.1-1.9-4.6-4-4.2-4.2 0-5 0 0.3-10.3-0.2-4.1 1.1-4 1.7-2 2.8-4-0.6-1.7 1.1-2.6-1.3-3.8 0.2-2.1 0.4-5.8 1.6-2.6 0.8-3.7 1.4-1.3 6.1-0.8 5.6 2.4 2.1 2.4 2.9 0.1 2.7-1.5 6.8 3.3 2.9-0.2 3.3-2.7 3.3 0.2 1.6-0.9 3 0.3 4.4 1.9 4.3-3.6 1.4 0.3 3.9 7 1-0.1z" id="NG" name="Nigéria"/>
  <path d="M1178.3 293.8l0.4 4-0.6 1.9-2.5 0.8 0.1-1.7 1.3-0.9-1.5-0.7 0.7-4.2 2.1 0.8z" id="PS" name="Palestina"/>
  <path d="M1270.1 343.7l-1.5 0.5-1.8-1.3-0.8-4.7 1.1-3.3 1.5-0.7 1.8 2 0.5 3.7-0.8 3.8z" id="QA" name="Catar"/>
  <path d="M1158.8 509.1l2.2 3.6-0.3 3.8-1.6 0.8-3.1-0.4-1.7 3.7-3.5-0.5 0.6-3.6 0.8-0.5 0.2-3.8 1.6-1.8 1.4 0.7 3.4-2z" id="RW" name="Ruanda"/>
  <path d="M938.9 324.3l-0.1 0.4-0.1 1.2-0.2 9.8-18-0.4-0.2 16.5-5.2 0.5-1.5 3.3 0.9 9.3-21.7 0-1.3 2.1 0.3-2.7 0.1 0 12.5-0.5 0.7-2.3 2.4-2.9 2-8.9 7.9-6.9 2.7-8.1 1.8-0.5 1.9-5 4.6-0.7 2 0.9 2.5 0 1.8-1.5 3.4-0.2-0.1-3.4 0.9 0z" id="EH" name="Saara Ocidental"/>
  <path d="M1240.5 315l5 0.6 1.7 3.1 3.9-0.2 2.7 5.6 2.9 1.4 1.2 2.3 4 2.7 0.7 2.6-0.4 2.2 0.9 2.1 1.8 1.8 0.9 2.1 1 1.6 1.8 1.3 1.5-0.5 1.3 2.5 0.3 1.4 2.7 6.6 16.9 3.2 1-1.4 3 4.6-2.6 12.8-16.3 6.4-15.9 2.5-5 2.9-3.5 6.7-2.6 1.1-1.5-2.1-2.1 0.3-5.5-0.7-1.1-0.6-6.4 0.1-1.5 0.6-2.4-1.6-1.3 3.1 0.8 2.7-2.4 2.1-0.9-2.8-1.8-1.9-0.5-2.6-3.1-2.3-3.3-5.4-1.9-5.2-4.1-4.4-2.5-1.1-4.1-6.1-0.9-4.4 0-3.8-3.6-7.2-2.8-2.5-3-1.3-2.1-3.7 0.2-1.4-1.8-3.4-1.7-1.4-2.5-4.8-3.8-5.1-3.1-4.4-2.7 0 0.5-3.5 0.1-2.3 0.4-2.6 6.2 1.1 2.1-2 1.1-2.3 4.1-0.9 0.7-2.2 1.6-1-6-6.5 10.4-3.2 0.9-1 6.8 1.8 8.6 4.5 16.8 12.9 10.2 0.5z" id="SA" name="Arábia Saudita"/>
  <path d="M1191 409.2l-0.7 5.5-2 6.4-3.3 3.1-2.3 5-0.5 2.6-2.6 1.8-1.5 6.7 0 0.8-0.8-0.2 0.1-3.2-0.8-2.2-2.9-2.5-0.9-4.6 0.6-4.8-2.6-0.4-0.4 1.4-3.4 0.4 1.5 1.8 0.5 3.9-3 3.5-2.7 4.6-2.9 0.7-4.8-3.7-2.1 1.3-0.5 1.8-2.9 1.3-0.2 1.3-5.6 0-0.8-1.3-4.1-0.3-2 1.1-1.6-0.5-2.9-3.8-1-1.7-4.1 0.9-1.5 2.9-1.3 5.8-2 1.2-1.7 0.7-0.5-0.3-1.9-1.9-0.4-2 0.8-2.6 0-2.7-3.3-4-0.7-2.7 0-1.6-2.1-1.9-0.1-3.7-1.3-2.5-1.9 0.4 0.5-2.4 1.4-2.6-0.7-2.7 1.8-2-1.2-1.5 1.3-3.9 2.5-4.8 4.8 0.5-1.1-25.5 0-2.7 6.4 0-0.5-12.8 22.3 0 21.5 0 22.1 0 2.1 6.3-1.2 1.1 1.2 6.7 2.5 7.6 2.2 1.6 3.2 2.4-2.7 3.6-4 1.1-1.7 2-0.3 4.2-2 9.5 0.7 2.5z" id="SD" name="Sudão"/>
  <path d="M1178.1 441.1l0.2 5-0.8 1.9-3 0.2-1.9 3.6 3.5 0.5 3 3.1 1 2.6 2.6 1.5 3.5 7-3.8 4.2-3.4 3.8-3.5 3-4 0-4.5 1.5-3.6-1.5-2.3 1.8-5.1-4.3-1.4-2.7-3.1 1.3-2.6-0.4-1.5 1.1-2.6-0.8-3.5-5.3-0.9-2-4.3-2.6-1.4-3.8-2.4-2.8-3.9-3.3-0.1-2.1-3.1-2.6-3.9-2.5 1.7-0.7 2-1.2 1.3-5.8 1.5-2.9 4.1-0.9 1 1.7 2.9 3.8 1.6 0.5 2-1.1 4.1 0.3 0.8 1.3 5.6 0 0.2-1.3 2.9-1.3 0.5-1.8 2.1-1.3 4.8 3.7 2.9-0.7 2.7-4.6 3-3.5-0.5-3.9-1.5-1.8 3.4-0.4 0.4-1.4 2.6 0.4-0.6 4.8 0.9 4.6 2.9 2.5 0.8 2.2-0.1 3.2 0.8 0.2z" id="SS" name="Sudão do Sul"/>
  <path d="M918 408l0.2 4 1.1 3.7 2 1.8 0.5 2.4-0.3 2-0.8 0.4-3.1-0.5-0.4 0.7-1.2 0.1-4.1-1.5-2.7-0.1-10.4-0.3-1.5 0.8-1.9-0.2-3 1-0.8-4.9 5.1 0.1 1.4-0.9 1 0 2.1-1.5 2.4 1.3 2.4 0.2 2.5-1.5-1.1-1.8-1.9 1-1.7 0-2.2-1.6-1.8 0.1-1.3 1.6-6.1 0.1-2.3-5-2.7-2.2 2.5-1.3 2.8-4.5 1.4-3.3 2-2 2.7 0.5 2.8-1.4 3.1 0 2.7 1.8 3.6 1.7 3.4 4.8 3.6 4.4z" id="SN" name="Senegal"/>
  <path d="M928.5 447.9l-2.6 3-2.6 3.4-0.3 1.9-1.4 2.1-1.5-0.5-4-2.6-3-3.4-0.9-2.4-0.7-4.7 3.1-2.9 0.6-1.7 1-1.4 1.6-0.2 1.3-1.2 4.5 0 1.6 2.3 1.2 2.7-0.2 1.9 0.9 1.7-0.1 2.3 1.5-0.3z" id="SL" name="Serra Leoa"/>
  <path d="M1161.7 667.7l0.6 2.9 0.3 2.9-1.4 2.8-3.2 0.7-3.1-3.5 0.1-2.2 1.7-2.4 0.6-1.9 1.7-0.4 2.7 1.1z" id="SZ" name="Essuatíni"/>
  <path d="M1195 287.5l-9.7 6.9-6.3-2.6-0.1 0 0.6-1-0.4-2.6 0.9-3.5 2.7-2.5-1.2-2.5-2.5-0.3-1.1-4.9 1-2.7 1.3-1.4 1.2-1.4-0.2-3.5 1.9 1.2 5.6-1.8 3 1.2 4.4 0 5.7-2.4 2.9 0.1 5.9-1-2.1 4-2.7 1.6 1.2 4.7-1 7.7-11 6.7z" id="SY" name="Síria"/>
  <path d="M1119.2 376.1l1.1 25.5-4.8-0.5-2.5 4.8-1.3 3.9 1.2 1.5-1.8 2 0.7 2.7-1.4 2.6-0.5 2.4 1.9-0.4 1.3 2.5 0.1 3.7 2.1 1.9 0 1.6-3.6 1.1-2.8 2.6-4 7-5.2 3-5.5-0.4-1.6 0.6 0.6 2.2-2.9 2.3-2.4 2.5-7.1 2.4-1.4-1.4-1-0.2-1 1.7-4.6 0.5 0.8-1.8-1.8-4.4-0.8-2.6-2.5-1.1-3.4-3.8 1.2-3 2.6 0.6 1.6-0.4 3.2 0-3.2-5.8 0.2-4.3-0.5-4.2-2.3-4.1 0.6-3.1-3.7-0.1 0-4.1-2.4-2.4 2.3-8.5 7-6 0.2-8.4 1.8-13 1.2-2.8-2.4-2.2-0.1-2-2.2-1.7-1.6-10 5.5-3.5 22.5 12.3 22.6 12.3z" id="TD" name="Chade"/>
  <path d="M991.4 431.2l-0.7 3.4 1.7 1.9 2 2.2 0.2 3.2 1.2 1.3-0.3 14.8 1.4 4.4-4.5 1.4-1.3-2.3-1.5-4.1-0.5-3.2 1.3-5.7-1.4-2.4-0.6-5 0-4.7-2.3-3.3 0.4-2 4.9 0.1z" id="TG" name="Togo"/>
  <path d="M1048.2 289.1l-0.1 4.9-2.6 1.8-1.6 2.1-3.6 2.5 0.6 2.6-0.4 2.8-2.6 1.4-2.6-11.5-3.4-2.6-0.1-1.5-4.5-3.9-0.6-4.8 3.2-3.6 1.1-5.3-1-6.1 1-3.3 5.7-2.5 3.7 0.7 0 3.3 4.4-2.4 0.4 1.2-2.5 3.2 0.1 2.9 1.9 1.6-0.5 5.6-3.5 3.2 1.2 3.5 2.8 0.1 1.4 3.1 2.1 1z" id="TN" name="Tunísia"/>
  <path d="M1167 508.4l-0.2 3.9-1.1 4.5 1.6 2.5 2.5-1.5 3.3-0.4 0.7 0.8 3.3-1.6-2.3-2.2 1.9-2.9 2.8-2.9 20.5 13.1 0.3 3.7 8.1 6.4-2.8 8 0.3 3.6 3.5 2.3 0.2 1.7-1.7 3.9 0.3 1.9-0.4 3.1 1.8 4 2.2 6.4 2 1.4-4.6 3.7-6.2 2.5-3.4-0.1-2.1 1.9-3.9 0.2-1.5 0.8-6.7-1.8-2.2 0.2 0.1-0.1-1.8-2.4-0.3-6.8-2.9-3.4-0.4 1.2-1-1.7-5.5-1.2-3.2-1.9-3.6-1.1-2.2-1.1-0.3-0.2-2.7-6.6-0.4-3.9-4.5-4.4 1.4-2.4-1.1-2.6 0.2-2.7-1-0.9 0.3-2.8 0.6-0.1 2-2.3 2.3-3.4 1.4-1.3 0-2.1-1.2-1.5-0.3-2.5 1.6-0.8 0.3-3.8-2.2-3.6 2-0.8 6.2 0.1z" id="TZ" name="Tanzânia"/>
  <path d="M1179 474.5l2.7 4.5 0.7 3.2 2.6 7.4-2.1 4.7-2.8 4.2-1.6 2.6 0 0.3-0.2-0.4-3-1.3-2.4 1.6-3.6 0.9-2.6 3.7 0.3 2.5-6.2-0.1-2 0.8-3.4 2-1.4-0.7 0.1-4.8 1.3-2.5 0.3-5.1 1.2-3 2.2-3.3 2.1-1.8 1.9-2.2-2.3-0.9 0.3-7.5 2.3-1.8 3.6 1.5 4.5-1.5 4 0 3.5-3z" id="UG" name="Uganda"/>
  <path d="M1283.8 394.9l-4 1.7-0.9 2.9 0 2.2-5.4 2.7-8.8 3-4.7 4.5-2.5 0.4-1.7-0.4-3.2 2.7-3.5 1.2-4.7 0.3-1.4 0.4-1.1 1.7-1.5 0.5-0.8 1.6-2.8-0.2-1.7 0.9-4-0.3-1.6-3.8 0-3.5-1-1.9-1.3-4.7-1.8-2.6 1.1-0.4-0.7-2.9 0.6-1.2-0.4-2.8 2.4-2.1-0.8-2.7 1.3-3.1 2.4 1.6 1.5-0.6 6.4-0.1 1.1 0.6 5.5 0.7 2.1-0.3 1.5 2.1 2.6-1.1 3.5-6.7 5-2.9 15.9-2.5 5.2 10.6 2.2 4.5z" id="YE" name="Iêmen"/>
  <path d="M1162.1 556.8l0.3 0.2 2.2 1.1 3.6 1.1 3.2 1.9 2.6 2.9 1.3 5.4-1 1.7-1.3 5.2 0.9 5.4-1.8 2.2-2 6 2.9 1.6-17.2 5.3 0.4 4.6-4.3 0.9-3.3 2.5-0.8 2.2-2 0.6-5.1 5.2-3.2 4.2-1.9 0.1-1.8-0.7-6.2-0.7-1-0.5 0-0.5-2.2-1.5-3.6-0.3-4.6 1.4-3.6-4-3.6-5.2 0.8-20.5 11.7 0.1-0.4-2.2 0.9-2.4-0.9-3 0.7-3.1-0.6-2 1.9 0.1 0.3 2 2.7-0.1 3.5 0.6 1.9 2.9 4.4 0.9 3.5-2 1.2 3.3 4.3 0.9 2 2.8 2.2 3.5 4.3 0-0.2-6.9-1.6 1.2-3.9-2.5-1.5-1.2 0.9-6.4 1.1-7.6-1.2-2.8 1.7-4.1 1.5-0.8 7.7-1.1 0.9 0.3-0.3 1.4 1.9 0.5 1.2 1.3 1-0.3-0.5-1.1z" id="ZM" name="Zâmbia"/>
  <path d="M1159.4 644.7l-2.9-0.7-1.9 0.8-2.7-1.1-2.2 0-3.4-2.9-4.3-1-1.5-4.1 0.1-2.3-2.3-0.7-6.1-7-1.6-3.7-1.1-1.2-1.9-5.1 6.2 0.7 1.8 0.7 1.9-0.1 3.2-4.2 5.1-5.2 2-0.6 0.8-2.2 3.3-2.5 4.3-0.9 0.2 2.4 4.7-0.1 2.6 1.3 1.1 1.6 2.7 0.5 2.8 2-0.4 8.2-1.3 4.4-0.4 4.8 0.8 1.9-0.9 3.8-0.8 0.6-1.7 4.6-6.2 7.3z" id="ZW" name="Zimbábue"/>
  <path d="M1222.1 512.6l-3.3-5.3-0.2-23.4 4.9-7.2 1.5-2.1 3.6-0.1 5-4.5 7.3-0.3 15.6-19.3-4.8 0.1-18.7-7.6-2.2-2.3-2.2-3.1-2.2-3.6 1.2-2.2 1.9-3.5 1.9 1.2 1.2 2.7 2.7 2.7 2.8 0 5.2-1.7 6.1-0.7 4.9-2 2.8-0.4 2-1.2 3.2-0.2 1.8-0.2 2.5-0.9 3-0.7 2.5-2.2 2.2 0 0.2 1.8-0.4 3.7 0.2 3.4-1.1 2.3-1.4 7-2.4 7.1-3.3 8.2-4.6 9.4-4.7 7.2-6.6 8.8-5.6 5.2-8.4 6.4-5.3 4.8-6.2 7.8-1.3 3.4-1.3 1.5z" id="SO" name="Somália"/>
  <path d="M1159.4 644.7l2.2 9 1.1 4.6-1.4 7.1 0.4 2.3-2.7-1.1-1.7 0.4-0.6 1.9-1.7 2.4-0.1 2.2 3.1 3.5 3.2-0.7 1.4-2.8 4.1 0-1.7 4.7-1 5.3-1.7 2.9-4 3.3-1.1 0.9-2.6 3.3-1.8 3.3-3.5 4.6-6.7 6.6-4.1 3.8-4.3 3-5.9 2.4-2.7 0.4-0.9 1.8-3.2-1-2.7 1.2-5.7-1.2-3.3 0.8-2.2-0.4-5.8 2.6-4.6 1-3.5 2.4-2.4 0.2-2.1-2.3-1.8-0.1-2.2-2.9-0.3 0.9-0.6-1.7 0.3-3.8-1.5-4.3 1.8-1.2 0.1-4.9-3.3-6-2.4-5.4 0-0.1-3.6-8.3 2.8-3.2 2 1.8 0.8 2.7 2.5 0.5 3.4 1.2 2.9-0.5 5-3.3 1.1-23.7 1.4 1 3 6.1-0.6 3.9 1.1 2.3 4-0.7 2.8-2.9 2.7-1.9 1.5-3.1 2.8-1.4 2.3 0.7 2.5 1.8 4.5 0.3 3.6-1.4 0.6-2 1.2-3.1 3-0.5 1.8-2.4 2-4.3 5.2-4.8 8.1-4.7 2.2 0 2.7 1.1 1.9-0.8 2.9 0.7z m-20.3 53.2l1.1-2 3.1-1 1.1-2.1 1.9-3.1-1.7-2-2.2-2-2.7 1.4-3.1 2.5-3.2 4 3.7 5 2-0.7z" id="ZA" name="África do Sul"/>
  <path d="M1264.1 333.3l0.3 0.1 0.2-0.1 0.4 0.7-0.1 0.2 0.1 0.9 0 0.7-0.2 0.4-0.1-0.4-0.6-0.8 0.1-0.4-0.2-0.7 0-0.4 0.1-0.2z" id="BH" name="Barém"/>
  <path name="Angola" id="AO" d="M 1121.2 572 1121.8 574 1121.1 577.1 1122 580.1 1121.1 582.5 1121.5 584.7 1109.8 584.6 1109 605.1 1112.6 610.3 1116.2 614.3 1105.8 616.9 1092.3 616 1088.5 613 1065.8 613.2 1065 613.7 1061.7 610.8 1058.1 610.6 1054.7 611.7 1052 612.9 1051.5 608.9 1052.4 603.2 1054.4 597.3 1054.7 594.6 1056.6 588.8 1058 586.2 1061.3 582 1063.2 579.1 1063.8 574.4 1063.5 570.7 1061.9 568.4 1060.4 564.5 1059.1 560.7 1059.4 559.3 1061.1 556.8 1059.5 550.6 1058.3 546.3 1055.5 542.2 1056.1 541 1058.4 540.1 1060.1 540.2 1062.1 539.5 1078.8 539.6 1080.1 544.3 1081.7 548.2 1083 550.3 1085.1 553.6 1088.9 553.1 1090.7 552.2 1093.8 553.1 1094.7 551.5 1096.2 547.8 1099.7 547.5 1100 546.4 1102.9 546.4 1102.4 548.7 1109.2 548.6 1109.3 552.7 1110.4 555.1 1109.5 559 1109.9 563 1111.7 565.4 1111.3 573 1112.7 572.4 1115.1 572.6 1118.6 571.6 1121.2 572 Z"/>
  <path name="Angola" id="AO" d="M 1055.3 539 1053.8 534.2 1056.1 531.4 1057.8 530.3 1059.9 532.5 1057.9 533.9 1056.9 535.5 1056.7 538.3 1055.3 539 Z"/>
  <path name="Omã" id="OM" d="M 1283.8 394.9 1281.6 390.4 1276.4 379.8 1292.7 373.4 1295.3 360.6 1292.3 356 1292.3 353.4 1293.6 350.8 1293.4 348.2 1295.8 346.9 1294.7 346 1294.7 341.8 1297.5 341.8 1300.5 346.2 1303.8 348.5 1307.9 349.4 1311.3 350.5 1314.2 354.2 1315.9 356.3 1317.9 357.2 1318.1 358.6 1316.4 362.4 1315.7 364.2 1313.5 366.3 1311.8 370.7 1309.3 370.3 1308.3 371.9 1307.6 375.1 1308.7 379.4 1308.2 380.2 1305.7 380.2 1302.4 382.6 1302.1 385.7 1300.9 387.1 1297.4 387 1295.4 388.6 1295.6 391.2 1293 393 1289.9 392.4 1286.3 394.6 1283.8 394.9 Z"/>
  <path name="Omã" id="OM" d="M 1296.2 336.7 1294.9 334.5 1296.3 332.4 1297 332.9 1296.8 335.6 1296.2 336.7 Z"/>
  <path name="Turquia" id="TR" d="M 1201.7 235.3 1207.2 235 1212.8 238.2 1214.1 240.4 1214.2 243.5 1218.4 245.1 1220.8 246.9 1217.5 248.8 1220.4 256.1 1219.7 258.1 1223.5 263.2 1221.1 264.3 1219 262.7 1212.7 261.8 1210.6 262.8 1204.7 263.8 1201.8 263.7 1196.1 266.1 1191.7 266.1 1188.7 264.9 1183.1 266.7 1181.2 265.5 1181.4 269 1180.2 270.4 1178.9 271.8 1176.6 268.9 1178.3 266.5 1175.1 267.1 1170.5 265.6 1167.3 269.3 1159.3 270 1154.6 266.6 1148.9 266.4 1147.9 269 1144.3 269.8 1138.9 266.4 1133.1 266.5 1129.3 260.1 1125.1 256.6 1127.1 251.6 1123.5 248.5 1128.6 242.4 1136.6 242.2 1138.2 237.3 1148.2 238.2 1153.8 234.1 1159.6 232.3 1168.1 232.1 1177.9 236.6 1185.8 239.1 1191.6 238.1 1196.2 238.7 1201.7 235.3 Z"/>
  <path name="Turquia" id="TR" d="M 1121.9 239.9 1123.1 239.2 1124.2 235.2 1121.5 233.5 1126.5 231.5 1131.1 232.3 1132 234.8 1136.8 236.8 1136.1 238.4 1129.9 238.7 1127.9 240.7 1124 244.1 1122 241.2 1121.9 239.9 Z"/>
  <path name="Comores" id="KM" d="M 1233.2 581.3 1232.3 581.2 1232.1 580.8 1232.1 580.5 1232.6 580.6 1233.3 581.1 1233.2 581.3 Z"/>
  <path name="Comores" id="KM" d="M 1236.9 579.4 1237.1 580.4 1237.1 581.1 1237 581.3 1236.8 581 1236.4 580.7 1236.3 580.5 1236 580.4 1235.4 580 1235.5 579.9 1236 580.1 1236.3 580 1236.5 579.6 1236.5 579.4 1236.8 579.3 1236.9 579.4 Z"/>
  <path name="Comores" id="KM" d="M 1231.2 578.4 1230.7 578 1230.4 577.9 1230.1 577.7 1229.9 577.1 1230 576.8 1230 576.6 1230.2 575.4 1230.1 575.3 1230.3 574.9 1230.8 574.8 1231 575.1 1230.8 576.3 1230.9 576.6 1231.1 577 1231.2 577.5 1231.4 578.1 1231.2 578.4 Z"/>
  <path name="Cabo Verde" id="CV" d="M 847.8 406.5 847.6 406.8 847.4 406.6 847.4 406.3 847.7 406.2 847.8 406.5 Z"/>
  <path name="Cabo Verde" id="CV" d="M 849.7 406.6 849.5 406.7 849.1 406.6 848.8 406.3 848.7 406 848.9 405.6 849.4 405.3 849.8 405.3 850 406 849.9 406.4 849.7 406.6 Z"/>
  <path name="Cabo Verde" id="CV" d="M 853.2 403.5 853.4 403.6 853.4 403.8 853.6 404 854 404.5 854.2 404.5 854.4 404.8 854.6 405.3 854.8 405.5 854.5 406 854.2 406.1 853.7 406 853.4 405.9 853.1 405.6 853.1 405.4 852.9 405.3 852.8 404.9 852.9 404.7 852.9 404.4 853.1 404 852.9 403.5 853.2 403.5 Z"/>
  <path name="Cabo Verde" id="CV" d="M 856.3 403.5 856.6 403.6 856.7 404.2 856.6 404.6 856.2 404.8 855.8 404.4 856 404 855.9 403.8 856.3 403.5 Z"/>
  <path name="Cabo Verde" id="CV" d="M 858.3 397.8 858.6 397.6 859.1 397.8 859.2 398 859.2 398.7 858.8 399 858.5 399.2 858.2 399.2 857.7 399 857.7 398.5 857.9 398.3 857.9 397.7 858 397.6 858.3 397.8 Z"/>
  <path name="Cabo Verde" id="CV" d="M 850.3 395 850.7 394.9 851 395.1 851.4 395.1 851.7 395.3 851.8 395.5 851.3 395.5 850.6 395.2 850.4 395.3 850.1 395.9 849.8 395.3 849.7 395.2 849.6 394.8 849.9 394.7 850.3 395 Z"/>
  <path name="Cabo Verde" id="CV" d="M 858.1 394.5 858.2 394.6 858.1 395.2 857.9 395.3 857.9 394.8 857.7 394.5 857.7 394.2 857.6 393.9 858 393.6 858.2 393.8 858.1 394.4 858.1 394.5 Z"/>
  <path name="Cabo Verde" id="CV" d="M 846.8 393.2 847 393.5 847.1 393.8 846.4 394.1 846.1 393.9 845.9 393.7 846.3 393.3 846.8 393.2 Z"/>
  <path name="Cabo Verde" id="CV" d="M 846 391.4 846.3 391.5 846.3 391.7 846.6 392 846.4 392.4 845.8 392.7 845.4 393.1 844.7 393.2 844.7 393.1 844.7 392.6 844.5 392.4 844.5 392.2 844.7 392 844.9 392 845.1 391.8 845.8 391.4 846 391.4 Z"/>
  <path name="Chipre" id="CY" d="M 1168.2 276.7 1168.3 276.9 1168.6 277.3 1168.2 277.2 1167.9 277.2 1167.5 277.4 1167.2 277.1 1167.2 276.8 1167.5 276.7 1167.7 276.8 1168.2 276.7 Z"/>
  <path name="Chipre" id="CY" d="M 1166.5 277.2 1166.5 277.3 1166.3 277.5 1166.2 278.1 1166.1 278.3 1165.8 278.3 1165.6 278.5 1165.1 278.7 1164.9 278.8 1164.3 279.1 1163.9 279 1163.4 279.1 1163.1 279.5 1162.9 279.2 1162.6 279.3 1162.4 279.3 1162.1 279 1161.7 279.3 1161.2 279.3 1160.7 279.1 1160.2 279 1159.8 278.7 1159.5 278.1 1159.2 277.8 1159 277.1 1158.8 276.8 1158.9 276.5 1159.4 276.8 1159.8 276.7 1160 276.4 1160.1 276.1 1160.4 276 1160.6 276.1 1160.8 275.9 1161 275.9 1161.1 276.3 1161.6 276.5 1161.7 276.7 1162.3 276.7 1162.9 276.2 1163.3 276.3 1163.6 276.1 1163.9 276.2 1164.3 276.4 1164.5 276.1 1164.8 276.1 1165.1 276.5 1165.1 277.1 1165.4 276.9 1165.7 277.1 1165.8 277 1166.5 277.2 Z"/>
  <path name="Ilhas Maurício" id="MU" d="M 1307.7 630.8 1308.1 631.7 1307.9 632.3 1307.5 632.7 1307.6 633 1307.3 633.3 1306.8 633.5 1306.3 633.5 1305.7 633.4 1305.6 633.5 1305.3 633.2 1305.5 633 1305.6 632.6 1305.7 631.9 1305.9 631.5 1306.4 631.1 1306.5 630.9 1306.7 630.4 1307.1 630.1 1307.5 630.2 1307.7 630.8 Z"/>
  <path name="Ilhas Maurício" id="MU" d="M 1339.5 628.7 1339.2 628.4 1339.6 628.2 1339.9 628.1 1340.1 628.2 1340 628.4 1339.5 628.7 Z"/>
  <path name="São Tomé e Príncipe" id="ST" d="M 1023.9 501.3 1023.7 501.3 1023.5 501.6 1023.3 501.6 1023.2 501.2 1023 500.4 1023 500.1 1023.4 499.6 1023.7 499.5 1024 499.2 1024.4 499.3 1024.6 499.7 1024.7 500 1024.6 500.4 1024.4 500.7 1024.1 501.1 1023.9 501.3 Z"/>
  <path name="São Tomé e Príncipe" id="ST" d="M 1028.5 491.5 1028.4 491.8 1028.2 491.9 1027.9 491.8 1027.9 491.5 1028.1 491.4 1028.1 491.1 1028.3 490.9 1028.6 491 1028.5 491.5 Z"/>
  <path name="Seicheles" id="SC" d="M 1249 562.1 1248.7 562.3 1248.2 562.3 1247.8 562.5 1247.4 562.5 1247.4 562.3 1247.9 562.3 1248.3 562.2 1248.7 561.9 1248.9 561.9 1249 562.1 Z"/>
  <path name="Seicheles" id="SC" d="M 1248.5 561.8 1248.3 561.9 1247.9 561.9 1247.9 561.7 1248.5 561.8 Z"/>
  <path name="Seicheles" id="SC" d="M 1300.4 531.5 1300.8 531.9 1300.6 532.2 1300.4 531.9 1300.1 531.7 1300.3 531.2 1300.4 531.5 Z"/>

</svg>